# xmcd
#
# Track frame offsets:
#	150
#	27570
#	44382
#	57280
#	67457
#	78365
#	89042
#	106029
#	115929
#	129695
#	144100
#	159930
#
# Disc length: 2374 seconds
#
# Revision: 1
# Processed by: cddbd v1.5.1PL0 Copyright (c) Steve Scherf et al.
# Submitted via: audiograbber 1.83.01
#
DISCID=a509440c
DTITLE=MARTINHO DA VILA - MARTINHO DA VILA
DYEAR=1900
DGENRE=SAMBA
TTITLE0=BOA NOITE-CARNAVAL DE ILUSÕES-CARAMBA
TTITLE1=QUATRO SÉCULOS DE MODAS E COSTUMES
TTITLE2=O PEQUENO BUGUÊS
TTITLE3=IAIÁ DO CAIS DOURADO
TTITLE4=CASA DE BAMBA
TTITLE5=AMOR, PRA QUE NASCEU
TTITLE6=QUEM É DO MAR NÃO ENJÔA
TTITLE7=BRASIL MULATO
TTITLE8=TOM MAIOR
TTITLE9=PRA QUE DINHEIRO
TTITLE10=PAREI NA SUA-NHÊM, NHÊM, NHÊM
TTITLE11=GRANDE AMOR
EXTD=
EXTT0=
EXTT1=
EXTT2=
EXTT3=
EXTT4=
EXTT5=
EXTT6=
EXTT7=
EXTT8=
EXTT9=
EXTT10=
EXTT11=
PLAYORDER=
